#!OML:ASF H:\Terrain\Patient Classification 1\Walking\steve\steve.ASF
:FULLY-SPECIFIED
:DEGREES
248
root 9.3665 16.5467 18.4034 6.89505 -9.1842 -4.31554
lowerback -1.62192 4.18757 5.06978
upperback -2.98468 5.60026 1.92258
thorax -1.87937 2.71541 -0.833764
lowerneck -9.34112 0.162028 -3.73829
upperneck 11.6985 0.958764 -1.44051
head 5.04754 0.209797 0.229296
rclavicle 5.83247e-014 2.8625e-014
rhumerus -12.2633 2.00373 -86.2567
rradius 38.802
rwrist -13.742
rhand -17.6485 -38.5002
rfingers 7.12502
rthumb 8.60957 -68.3046
lclavicle 5.83247e-014 2.8625e-014
lhumerus -57.662 15.63 70.7307
lradius 11.8824
lwrist -15.0604
lhand -14.8381 -10.3719
lfingers 7.12502
lthumb 11.3209 19.3025
rfemur 0.67019 -3.18097 26.0518
rtibia 21.5574
rfoot -14.2335 24.2521
rtoes 11.0006
lfemur -35.8556 -0.0952007 -11.4953
ltibia 20.0637
lfoot -20.3006 12.3411
ltoes -13.4906
249
root 9.3709 16.5304 18.6246 7.08871 -9.79301 -4.90625
lowerback -1.51899 4.4097 5.41299
upperback -3.11592 5.91161 2.07837
thorax -2.04182 2.85934 -0.872668
lowerneck -8.98601 0.24876 -3.65978
upperneck 11.4925 1.05113 -1.51141
head 4.92354 0.259859 0.199771
rclavicle -4.08937e-014 -2.50469e-014
rhumerus -11.4535 2.73252 -86.0412
rradius 39.6666
rwrist -13.9962
rhand -17.6354 -39.5128
rfingers 7.12502
rthumb 8.62219 -69.3167
lclavicle -4.08937e-014 -2.50469e-014
lhumerus -59.1419 15.1378 70.4645
lradius 11.9855
lwrist -13.8789
lhand -14.9698 -10.1832
lfingers 7.12502
lthumb 11.1939 19.4982
rfemur 1.9668 -2.53935 26.4029
rtibia 20.3098
rfoot -13.4755 24.3185
rtoes 8.5205
lfemur -36.0839 -1.38709 -9.60743
ltibia 18.1147
lfoot -21.2543 14.0306
ltoes -12.1863
250
root 9.37342 16.5092 18.843 7.46901 -10.4869 -5.51361
lowerback -1.62711 4.64666 5.67913
upperback -3.22351 6.22639 2.26351
thorax -2.07104 3.0102 -0.820249
lowerneck -8.96503 0.365865 -3.05992
upperneck 11.4428 1.20458 -2.15268
head 4.91045 0.320625 -0.0860621
rclavicle 7.23079e-015 -5.56597e-015
rhumerus -10.3575 3.51786 -85.7331
rradius 40.0727
rwrist -14.2587
rhand -17.4509 -39.1723
rfingers 7.12502
rthumb 8.80026 -68.9688
lclavicle 7.23079e-015 -5.56597e-015
lhumerus -60.5215 15.0943 69.8331
lradius 11.9332
lwrist -12.9795
lhand -15.3618 -10.5634
lfingers 7.12502
lthumb 10.8158 19.1381
rfemur 2.91 -1.81515 26.7468
rtibia 19.3165
rfoot -12.6258 24.6827
rtoes 7.75469
lfemur -36.5257 -2.56288 -7.61196
ltibia 16.4196
lfoot -23.0258 15.2851
ltoes -10.1976
251
root 9.39075 16.4716 19.0548 7.7717 -10.7784 -5.70483
lowerback -1.60224 4.74753 5.75428
upperback -3.33986 6.36926 2.27396
thorax -2.19188 3.07513 -0.85654
lowerneck -9.78429 0.204039 -3.50749
upperneck 12.1579 1.05665 -1.75017
head 5.26727 0.235438 0.104051
rclavicle 1.51449e-014 1.39149e-014
rhumerus -9.50753 4.17614 -85.4558
rradius 40.724
rwrist -14.7202
rhand -17.9019 -39.0828
rfingers 7.12502
rthumb 8.36506 -68.8972
lclavicle 1.51449e-014 1.39149e-014
lhumerus -61.8727 15.3771 68.5728
lradius 11.8976
lwrist -13.0195
lhand -14.7829 -10.6423
lfingers 7.12502
lthumb 11.3742 19.0293
rfemur 3.74792 -2.02954 26.5193
rtibia 18.483
rfoot -10.8161 25.5587
rtoes 11.9089
lfemur -37.1536 -4.10643 -6.08438
ltibia 15.0395
lfoot -25.692 15.7933
ltoes -7.30455
252
root 9.41001 16.4426 19.2775 7.95492 -10.8601 -5.73695
lowerback -1.56664 4.82584 5.80072
upperback -3.44615 6.48012 2.14655
thorax -2.29661 3.12353 -1.01865
lowerneck -10.2321 0.0930489 -3.50613
upperneck 12.5134 0.917008 -1.60463
head 5.4542 0.167866 0.140106
rclavicle 4.30058e-014 1.35174e-014
rhumerus -8.80829 4.45851 -85.3077
rradius 41.3815
rwrist -15.1691
rhand -18.1391 -38.747
rfingers 7.12502
rthumb 8.13613 -68.5704
lclavicle 4.30058e-014 1.35174e-014
lhumerus -63.0173 15.0376 67.8076
lradius 12.013
lwrist -12.5572
lhand -14.7619 -10.5537
lfingers 7.12502
lthumb 11.3944 19.1168
rfemur 4.80861 -2.3941 26.1139
rtibia 17.6477
rfoot -10.279 25.9345
rtoes 10.8846
lfemur -37.6593 -3.68706 -6.03735
ltibia 14.0254
lfoot -25.9024 14.7123
ltoes -6.04261
253
root 9.42636 16.4302 19.5084 8.21064 -11.0333 -5.99234
lowerback -1.74669 4.93802 6.01645
upperback -3.51207 6.61651 2.105
thorax -2.22905 3.18652 -1.16182
lowerneck -10.0862 0.122094 -3.42548
upperneck 12.2833 0.920326 -1.53158
head 5.35701 0.18364 0.149568
rclavicle -2.41213e-014 -1.66979e-014
rhumerus -7.95877 4.76644 -85.1333
rradius 41.7404
rwrist -15.5824
rhand -18.3863 -38.0268
rfingers 7.12502
rthumb 7.89749 -67.8593
lclavicle -2.41213e-014 -1.66979e-014
lhumerus -64.1816 15.2249 66.3076
lradius 11.9585
lwrist -12.8316
lhand -15.5144 -10.6954
lfingers 7.12502
lthumb 10.6686 19.0137
rfemur 5.91143 -2.27567 25.9832
rtibia 16.7592
rfoot -10.0382 25.9608
rtoes 8.1801
lfemur -38.0896 -3.14335 -5.8051
ltibia 13.3518
lfoot -25.0406 14.6391
ltoes -8.34088
254
root 9.44234 16.4197 19.742 8.37596 -11.1403 -6.20245
lowerback -1.84588 4.98576 6.16046
upperback -3.57879 6.67472 2.11224
thorax -2.22512 3.21109 -1.22519
lowerneck -9.96049 0.175308 -3.29275
upperneck 12.0794 0.976299 -1.64639
head 5.27273 0.2136 0.0958139
rclavicle -2.64259e-014 -2.38542e-015
rhumerus -7.36104 5.25031 -84.9122
rradius 42.2984
rwrist -15.724
rhand -19.3124 -38.5723
rfingers 7.12502
rthumb 7.00358 -68.4364
lclavicle -2.64259e-014 -2.38542e-015
lhumerus -65.7009 15.9669 63.9011
lradius 11.8744
lwrist -14.1704
lhand -15.659 -10.8043
lfingers 7.12502
lthumb 10.5291 18.9119
rfemur 7.07182 -2.08902 25.8789
rtibia 15.821
rfoot -8.66702 26.0516
rtoes 9.05052
lfemur -38.4438 -2.72669 -5.68719
ltibia 13.0686
lfoot -23.9501 14.9926
ltoes -13.1839
255
root 9.4577 16.3911 19.9795 8.4028 -11.1114 -6.26514
lowerback -1.90922 4.9865 6.18442
upperback -3.57065 6.66861 2.05544
thorax -2.17222 3.20841 -1.28943
lowerneck -10.2703 0.118792 -3.13899
upperneck 12.2235 0.906655 -1.74492
head 5.37161 0.175197 0.035443
rclavicle 1.03492e-014 -1.51076e-014
rhumerus -6.85355 5.65758 -84.6941
rradius 42.9624
rwrist -15.7182
rhand -20.3968 -40.0866
rfingers 7.12502
rthumb 5.95669 -69.9828
lclavicle 1.03492e-014 -1.51076e-014
lhumerus -66.8931 16.2275 62.2545
lradius 11.7465
lwrist -14.6089
lhand -15.7844 -10.8238
lfingers 7.12502
lthumb 10.4081 18.8986
rfemur 8.32074 -1.8579 25.7143
rtibia 14.9961
rfoot -7.43372 25.956
rtoes 9.57372
lfemur -38.6456 -2.54845 -5.8111
ltibia 13.0926
lfoot -23.2669 14.5201
ltoes -13.5879
